<?xml version="1.0" encoding="UTF-8" standalone="no"?>
<svg
   width="91.44mm"
   height="91.44mm"
   version="1.1"
   style="shape-rendering:geometricPrecision; text-rendering:geometricPrecision; image-rendering:optimizeQuality; fill-rule:evenodd; clip-rule:evenodd"
   viewBox="0 0 9144 9144"
   id="svg2"
   sodipodi:docname="facebook-3000954.svg"
   inkscape:version="1.3 (0e150ed, 2023-07-21)"
   xmlns:inkscape="http://www.inkscape.org/namespaces/inkscape"
   xmlns:sodipodi="http://sodipodi.sourceforge.net/DTD/sodipodi-0.dtd"
   xmlns="http://www.w3.org/2000/svg"
   xmlns:svg="http://www.w3.org/2000/svg">
  <sodipodi:namedview
     id="namedview2"
     pagecolor="#ffffff"
     bordercolor="#000000"
     borderopacity="0.25"
     inkscape:showpageshadow="2"
     inkscape:pageopacity="0.0"
     inkscape:pagecheckerboard="0"
     inkscape:deskcolor="#d1d1d1"
     inkscape:document-units="mm"
     showgrid="false"
     inkscape:zoom="1.9068287"
     inkscape:cx="172.8"
     inkscape:cy="172.8"
     inkscape:window-width="1440"
     inkscape:window-height="872"
     inkscape:window-x="0"
     inkscape:window-y="28"
     inkscape:window-maximized="0"
     inkscape:current-layer="Layer_x0020_1" />
  <defs
     id="defs1">
    <style
       type="text/css"
       id="style1">  .fil1 {fill:#0D8ABC} .fil0 {fill:white} .fil2 {fill:#011627;fill-rule:nonzero}  </style>
  </defs>
  <g
     id="Layer_x0020_1"
     inkscape:label="Layer 1">
    <metadata
       id="CorelCorpID_0Corel-Layer" />
    <g
       id="_3166736507536">
      <polygon
         class="fil0"
         points="0,0 9144,0 9144,9144 0,9144 "
         id="polygon1"
         style="fill:none" />
    </g>
  </g>
  <g
     inkscape:groupmode="layer"
     id="layer1"
     inkscape:label="Layer 2">
    <path
       class="fil1"
       d="M4251 6605l507 0 0 -1812c0,-47 38,-85 85,-85l593 0 0 -508 -593 0c-47,0 -85,-38 -85,-85 0,-218 0,-377 14,-500 15,-137 48,-228 116,-291 2,-1 4,-3 6,-5 59,-52 137,-78 245,-90 80,-9 177,-11 297,-11l0 -508c-294,0 -520,2 -689,22 -170,21 -281,60 -350,136 -71,79 -107,203 -126,394 -21,203 -21,482 -21,853 0,47 -38,85 -84,85l-458 0 0 508 458 1c46,0 84,37 84,84l1 1812z"
       id="path1"
       style="shape-rendering:geometricPrecision;text-rendering:geometricPrecision;image-rendering:optimizeQuality;fill-rule:evenodd;clip-rule:evenodd" />
    <path
       class="fil2"
       d="M4166 4115l-458 0 0 508 458 1c46,0 84,37 84,84l1 1812 507 0 0 -1812c0,-47 38,-85 85,-85l593 0 0 -508 -593 0c-47,0 -85,-38 -85,-85 0,-218 0,-377 14,-500 15,-137 48,-228 116,-291 2,-1 4,-3 6,-5 59,-52 137,-78 245,-90 80,-9 177,-11 297,-11l0 -508c-294,0 -520,2 -689,22 -170,21 -281,60 -350,136 -71,79 -107,203 -126,394 -21,203 -21,482 -21,853 0,47 -38,85 -84,85zm-542 -170l457 0c0,-331 2,-585 22,-784 23,-228 71,-383 169,-491 100,-111 243,-165 455,-191 196,-24 452,-24 793,-24 47,0 85,38 85,85l0 677c0,47 -38,85 -85,85 -156,0 -276,0 -363,10 -72,8 -121,22 -151,48l-3 3c-35,32 -53,90 -63,186 -11,95 -12,225 -12,396l592 0c47,0 85,38 85,85l0 678c0,46 -38,84 -85,84l-592 0 0 1812 -1 0c0,47 -38,85 -84,85l-677 -1c-46,0 -84,-37 -84,-84l-1 -1812 -457 0c-47,0 -85,-38 -85,-84l0 -678c0,-47 38,-85 85,-85z"
       id="path2"
       style="shape-rendering:geometricPrecision;text-rendering:geometricPrecision;image-rendering:optimizeQuality;fill-rule:evenodd;clip-rule:evenodd" />
  </g>
</svg>
